<svg width="24" height="24" viewBox="0 0 24 24" fill="none" xmlns="http://www.w3.org/2000/svg">
<rect x="10" y="6" width="4" height="4" fill="#262423"/>
<rect x="10" y="14" width="4" height="4" fill="#262423"/>
<rect x="10" y="10" width="4" height="4" transform="rotate(90 10 10)" fill="#262423"/>
<rect x="18" y="10" width="4" height="4" transform="rotate(90 18 10)" fill="#262423"/>
<rect x="18" y="2" width="2" height="2" fill="#262423"/>
<rect x="18" y="4" width="2" height="2" transform="rotate(90 18 4)" fill="#262423"/>
<rect x="20" y="6" width="2" height="2" transform="rotate(90 20 6)" fill="#262423"/>
<rect x="22" y="4" width="2" height="2" transform="rotate(90 22 4)" fill="#262423"/>
<rect x="4" y="2" width="2" height="6" fill="#262423"/>
<rect x="8" y="4" width="2" height="6" transform="rotate(90 8 4)" fill="#262423"/>
<rect x="16" y="20" width="2" height="2" fill="#262423"/>
<rect x="20" y="16" width="2" height="2" fill="#262423"/>
<rect x="4" y="16" width="2" height="6" fill="#262423"/>
<rect x="8" y="18" width="2" height="6" transform="rotate(90 8 18)" fill="#262423"/>
</svg>
